<svg xmlns="http://www.w3.org/2000/svg" xmlns:xlink="http://www.w3.org/1999/xlink" width="500" zoomAndPan="magnify" viewBox="0 0 375 374.999991" height="500" preserveAspectRatio="xMidYMid meet" version="1.0"><defs><clipPath id="4ac59e287e"><path d="M 57.066406 20.277344 L 318 20.277344 L 318 354.777344 L 57.066406 354.777344 Z M 57.066406 20.277344 " clip-rule="nonzero"/></clipPath></defs><g clip-path="url(#4ac59e287e)"><path fill="#ffffff" d="M 232.804688 56.234375 L 232.804688 55.996094 L 266.945312 83.390625 L 266.945312 107.824219 L 317.820312 67.410156 L 317.820312 251.1875 L 283.683594 278.308594 L 283.683594 138.101562 L 214.921875 192.722656 L 266.945312 234.046875 L 266.945312 291.605469 L 232.804688 318.996094 L 232.804688 318.761719 L 187.496094 354.714844 C 187.496094 354.714844 142.707031 319.132812 142.707031 319.132812 L 142.707031 319.136719 L 108.566406 292.015625 L 108.566406 151.808594 L 91.3125 138.101562 L 91.3125 278.308594 L 57.171875 251.1875 L 57.171875 67.410156 L 108.566406 108.234375 L 108.566406 82.980469 L 142.707031 55.859375 L 142.707031 55.863281 L 187.496094 20.277344 C 187.496094 20.277344 232.804688 56.234375 232.804688 56.234375 Z M 142.707031 275.558594 L 187.453125 311.105469 L 232.804688 275.078125 L 232.804688 250.5 L 142.707031 178.929688 Z M 142.707031 99.4375 L 142.707031 135.355469 L 187.496094 170.9375 L 232.804688 134.945312 L 232.804688 99.917969 L 187.453125 63.890625 Z M 142.707031 99.4375 " fill-opacity="1" fill-rule="evenodd"/></g></svg>